# AST/ASF file generated using VICON BodyLanguage
# -----------------------------------------------
:version 1.10
:name VICON
:units
  mass 1.0
  length 0.45
  angle deg
:documentation
   .ast/.asf automatically generated from VICON data using
   VICON BodyBuilder and BodyLanguage model FoxedUp or BRILLIANT.MOD
:root
   order TX TY TZ RX RY RZ
   axis XYZ
   position 0 0 0  
   orientation 0 0 0 
:bonedata
  begin
     id 1 
     name lhipjoint
     direction 0.78388 -0.462562 0.414208 
     length 3.01181 
     axis 0 0 0  XYZ
  end
  begin
     id 2 
     name lfemur
     direction 0.34202 -0.939693 0  
     length 6.04673  
     axis 0 0 20  XYZ
    dof rx ry rz
    limits (-160.0 20.0)
           (-70.0 70.0)
           (-60.0 70.0)
  end
  begin
     id 3 
     name ltibia
     direction 0.34202 -0.939693 0   
     length 7.211   
     axis 0 0 20   XYZ
    dof rx
    limits (-10.0 170.0)
  end
  begin
     id 4 
     name lfoot
     direction 0.121887 -0.334882 0.934344   
     length 2.13567   
     axis -90 7.62852e-016 20   XYZ
    dof rx rz
    limits (-45.0 90.0)
           (-70.0 20.0)
  end
  begin
     id 5 
     name ltoes
     direction 1.53555e-011 -4.2179e-011 1   
     length 1.05957   
     axis -90 7.62852e-016 20   XYZ
    dof rx
    limits (-90.0 20.0)
  end
  begin
     id 6 
     name rhipjoint
     direction -0.769387 -0.475875 0.426129   
     length 2.92756  
     axis 0 0 0  XYZ 
  end
  begin
     id 7 
     name rfemur
     direction -0.34202 -0.939693 0   
     length 6.35468   
     axis 0 0 -20   XYZ
    dof rx ry rz
    limits (-160.0 20.0)
           (-70.0 70.0)
           (-70.0 60.0)
  end
  begin
     id 8 
     name rtibia
     direction -0.34202 -0.939693 0   
     length 7.37886   
     axis 0 0 -20   XYZ
    dof rx
    limits (-10.0 170.0)
 end
 begin
     id 9 
     name rfoot
     direction -0.101763 -0.279592 0.954711   
     length 2.21478  
     axis -90 -7.62852e-016 -20   XYZ
    dof rx rz
    limits (-45.0 90.0)
           (-20.0 70.0)
  end
  begin
     id 10 
     name rtoes
     direction -1.53494e-011 -4.21851e-011 1   
     length 1.10506   
     axis -90 -7.62852e-016 -20   XYZ
    dof rx
    limits (-90.0 20.0)
  end
  begin
     id 11 
     name lowerback
     direction 0.00747405 0.999267 0.0375481   
     length 2.13259   
     axis 0 0 0   XYZ
    dof rx ry rz
    limits (-20.0 45.0)
           (-30.0 30.0)
           (-30.0 30.0)
  end
  begin
     id 12 
     name upperback
     direction 0.00661626 0.996177 0.0871029   
     length 2.10528   
     axis 0 0 0   XYZ
    dof rx ry rz
    limits (-20.0 45.0)
           (-30.0 30.0)
           (-30.0 30.0)
  end
  begin
     id 13 
     name thorax
     direction 0.00320659 0.997679 0.0680167   
     length 2.11338   
     axis 0 0 0   XYZ
    dof rx ry rz
    limits (-20.0 45.0)
           (-30.0 30.0)
           (-30.0 30.0)
  end
  begin
     id 14 
     name lowerneck
     direction 0.0374841 0.973033 0.227602   
     length 1.42765   
     axis 0 0 0   XYZ
    dof rx ry rz
    limits (-20.0 45.0)
           (-30.0 30.0)
           (-30.0 30.0)
  end
  begin
     id 15 
     name upperneck
     direction 0.00481585 0.989155 -0.146795   
     length 1.47593   
     axis 0 0 0   XYZ
    dof rx ry rz
    limits (-20.0 45.0)
           (-30.0 30.0)
           (-30.0 30.0)
  end
  begin
     id 16
     name head
     direction -0.00292522 0.997206 -0.0746423  
     length 1.48116  
     axis 0 0 0   XYZ
    dof rx ry rz
    limits (-20.0 45.0)
           (-30.0 30.0)
           (-30.0 30.0)
  end
  begin
     id 17 
     name lclavicle
     direction 0.951444 0.305606 0.0368784  
     length 3.01855  
     axis 0 0 0   XYZ
    dof ry rz
    limits (-20.0 10.0)
           (0.0 20.0)
  end
  begin
     id 18 
     name lhumerus
     direction 1 -4.48977e-011 2.61664e-027   
     length 5.52731   
     axis 180 -30 -90   XYZ
    dof rx ry rz
    limits (-60.0 90.0)
           (-90.0 90.0)
           (-90.0 90.0)
  end
  begin
     id 19
     name lradius
     direction 1 -4.48944e-011 8.22157e-027   
     length 3.11059   
     axis 180 -30 -90   XYZ
    dof rx
    limits (-10.0 170.0)
  end
  begin
     id 20
     name lwrist
     direction 1 -4.48976e-011 1.5779e-026   
     length 1.5553   
     axis -1.15221e-014 90 90   XYZ
    dof ry
    limits (-180.0 0.0)
 end
  begin
     id 21 
     name lhand
     direction 1 -4.49025e-011 3.1558e-026   
     length 0.419626   
     axis -2.01367e-014 90 90   XYZ
    dof rx rz
    limits (-90.0 90.0)
           (-45.0 45.0)
  end
  begin
     id 22 
     name lfingers
     direction 1 -4.4904e-011 6.31161e-026   
     length 0.338313   
     axis -4.02734e-014 90 90   XYZ
    dof rx
    limits (0.0 90.0)
  end
  begin
     id 23
     name lthumb
     direction 0.707107 -6.35004e-011 0.707107   
     length 0.485752   
     axis -90 45 2.85299e-015   XYZ
    dof rx rz
    limits (-45.0 45.0)
           (-45.0 45.0)
  end
  begin
     id 24 
     name rclavicle
     direction -0.968876 0.223791 0.105816   
     length 3.04177  
     axis 0 0 0   XYZ 
    dof ry rz
    limits (-10.0 20.0)
           (-20.0 0.0)
  end
  begin
     id 25 
     name rhumerus
     direction -1 -4.48962e-011 -1.01384e-027  
     length 5.25396   
     axis 180 30 90   XYZ
    dof rx ry rz
    limits (-90.0 60.0)
           (-90.0 90.0)
           (-90.0 90.0)
  end
  begin
     id 26 
     name rradius
     direction -1 -4.48955e-011 8.88542e-027   
     length 3.10567   
     axis 180 30 90   XYZ
    dof rx
    limits (-10.0 170.0)
  end
  begin
     id 27 
     name rwrist
     direction -1 -4.48994e-011 1.5779e-026   
     length 1.55283   
     axis -1.15221e-014 -90 -90   XYZ
    dof ry
    limits (-180.0 0.0)
  end
  begin
     id 28
     name rhand
     direction -1 -4.48891e-011 3.1558e-026   
     length 0.498676   
     axis -2.01367e-014 -90 -90   XYZ
    dof rx rz
    limits (-90.0 90.0)
           (-45.0 45.0)
  end
  begin
     id 29
     name rfingers
     direction -1 -4.48972e-011 6.31161e-026   
     length 0.402045   
     axis -4.02734e-014 -90 -90   XYZ
    dof rx
    limits (0.0 90.0)
  end
  begin
     id 30
     name rthumb
     direction -0.707107 -6.34849e-011 0.707107   
     length 0.577259   
     axis -90 -45 -2.85299e-015   XYZ
    dof rx rz
    limits (-45.0 45.0)
           (-45.0 45.0)
  end
:hierarchy
  begin
    root lhipjoint rhipjoint lowerback
    lhipjoint lfemur
    lfemur ltibia
    ltibia lfoot
    lfoot ltoes
    rhipjoint rfemur
    rfemur rtibia
    rtibia rfoot
    rfoot rtoes
    lowerback upperback
    upperback thorax
    thorax lowerneck lclavicle rclavicle
    lowerneck upperneck
    upperneck head
    lclavicle lhumerus
    lhumerus lradius
    lradius lwrist
    lwrist lhand lthumb
    lhand lfingers
    rclavicle rhumerus
    rhumerus rradius
    rradius rwrist
    rwrist rhand rthumb
    rhand rfingers
  end

#!OML:ASF H:\Pregnant\Project 1\Capture day 1\Session 1\femalepreg.ASF
:FULLY-SPECIFIED
:DEGREES
102
root 6.07167 15.2665 22.5675 -151.061 8.91941 -172.268
lowerback -6.54567 -0.34605 -7.00183
upperback -3.02429 0.247909 -2.04508
thorax 0.528382 0.289255 1.83109
lowerneck -14.7131 4.65332 3.46177
upperneck 27.4726 6.7648 2.45876
head 11.3969 4.26201 1.36981
rclavicle 3.10104e-014 6.83819e-014
rhumerus -31.6413 13.9861 -85.3359
rradius 40.5014
rwrist -16.405
rhand -7.87963 -22.7509
rfingers 7.12502
rthumb 18.0247 -51.9357
lclavicle 3.10104e-014 6.83819e-014
lhumerus -13.3844 -21.3569 79.9632
lradius 30.1982
lwrist 37.892
lhand -27.18 -6.55603
lfingers 7.12502
lthumb -0.593929 23.4229
rfemur -48.5745 2.9203 23.8944
rtibia 65.5256
rfoot -5.97933 -1.57808
rtoes -19.8983
lfemur -62.985 9.59307 -18.4588
ltibia 42.8128
lfoot -6.83439 8.15614
ltoes -14.1882
103
root 6.05244 15.2753 22.5242 -150.843 8.8122 -172.029
lowerback -6.3644 -0.402481 -7.01727
upperback -2.98392 0.163805 -2.17502
thorax 0.477059 0.248662 1.6993
lowerneck -14.7616 4.65695 3.39728
upperneck 27.3492 6.69969 2.68423
head 11.3476 4.24788 1.44909
rclavicle 2.06736e-014 -3.81667e-014
rhumerus -31.4791 14.1898 -85.5291
rradius 40.6691
rwrist -16.4675
rhand -7.50544 -22.8192
rfingers 7.12502
rthumb 18.3847 -51.9704
lclavicle 2.06736e-014 -3.81667e-014
lhumerus -12.5952 -21.9577 79.5125
lradius 29.732
lwrist 37.6479
lhand -27.1986 -6.45402
lfingers 7.12502
lthumb -0.611857 23.5248
rfemur -49.6242 2.50736 24.2396
rtibia 65.9465
rfoot -6.17397 -1.72797
rtoes -19.7363
lfemur -63.1809 9.7942 -18.4477
ltibia 42.9966
lfoot -7.07684 7.99533
ltoes -14.1372
104
root 6.03414 15.2832 22.4815 -150.624 8.68062 -171.771
lowerback -6.17673 -0.457526 -6.99171
upperback -2.94754 0.0780969 -2.30152
thorax 0.417933 0.207217 1.54856
lowerneck -14.7929 4.65689 3.33447
upperneck 27.2129 6.63016 2.91006
head 11.2905 4.23214 1.52636
rclavicle 2.54444e-014 -3.02153e-014
rhumerus -31.3325 14.4012 -85.7342
rradius 40.8755
rwrist -16.494
rhand -7.15641 -22.8537
rfingers 7.12502
rthumb 18.7204 -51.9729
lclavicle 2.54444e-014 -3.02153e-014
lhumerus -11.8117 -22.6092 79.0468
lradius 29.2771
lwrist 37.4034
lhand -27.2889 -6.3672
lfingers 7.12502
lthumb -0.69908 23.6114
rfemur -50.6297 2.10515 24.6219
rtibia 66.2154
rfoot -6.28865 -1.91945
rtoes -19.676
lfemur -63.4004 9.99041 -18.4056
ltibia 43.2046
lfoot -7.31881 7.83031
ltoes -14.1176
105
root 6.01658 15.2898 22.4394 -150.403 8.53853 -171.507
lowerback -5.99109 -0.511209 -6.94714
upperback -2.90768 -0.00679968 -2.42496
thorax 0.362995 0.165704 1.39094
lowerneck -14.8173 4.65496 3.27384
upperneck 27.0588 6.55776 3.13102
head 11.2259 4.21408 1.59993
rclavicle 0 2.06736e-014
rhumerus -31.1822 14.6258 -85.9407
rradius 41.1165
rwrist -16.5019
rhand -6.83392 -22.8619
rfingers 7.12502
rthumb 19.0305 -51.9509
lclavicle 0 2.06736e-014
lhumerus -11.0249 -23.2892 78.5683
lradius 28.8426
lwrist 37.1622
lhand -27.4462 -6.30074
lfingers 7.12502
lthumb -0.851027 23.6773
rfemur -51.5958 1.71833 25.0182
rtibia 66.3496
rfoot -6.34625 -2.14115
rtoes -19.6559
lfemur -63.6393 10.1777 -18.3458
ltibia 43.4373
lfoot -7.56176 7.67179
ltoes -14.1205
106
root 5.99958 15.2952 22.3978 -150.185 8.39986 -171.246
lowerback -5.80548 -0.561699 -6.90183
upperback -2.86219 -0.0875037 -2.54496
thorax 0.312993 0.125893 1.23715
lowerneck -14.8474 4.65145 3.20125
upperneck 26.8919 6.48363 3.3551
head 11.1574 4.19363 1.6758
rclavicle -3.81667e-014 6.36111e-015
rhumerus -31.0232 14.8656 -86.1404
rradius 41.392
rwrist -16.4991
rhand -6.57142 -22.8393
rfingers 7.12502
rthumb 19.283 -51.9032
lclavicle -3.81667e-014 6.36111e-015
lhumerus -10.2224 -23.9635 78.0808
lradius 28.4187
lwrist 36.9127
lhand -27.6267 -6.23966
lfingers 7.12502
lthumb -1.02536 23.7376
rfemur -52.5256 1.35205 25.4105
rtibia 66.3613
rfoot -6.37536 -2.38055
rtoes -19.5828
lfemur -63.8913 10.3622 -18.2842
ltibia 43.6924
lfoot -7.80808 7.52401
ltoes -14.1354
